<mxfile host="app.diagrams.net" modified="2023-08-10T08:45:33.507Z" agent="Mozilla/5.0 (Windows NT 10.0; Win64; x64) AppleWebKit/537.36 (KHTML, like Gecko) Chrome/115.0.0.0 Safari/537.36" etag="oVFALl_zmTEWkLF4LrmA" version="21.6.7" type="github">
  <diagram name="Page-1" id="RqEUx_hPR4AzlYvkwtgN">
    <mxGraphModel dx="5150" dy="3037" grid="1" gridSize="10" guides="1" tooltips="1" connect="1" arrows="1" fold="1" page="1" pageScale="1" pageWidth="850" pageHeight="1100" math="0" shadow="0">
      <root>
        <mxCell id="0" />
        <mxCell id="1" parent="0" />
        <mxCell id="PNFVQXXulbzdwSJi9o5z-2" value="" style="shape=cube;whiteSpace=wrap;html=1;boundedLbl=1;backgroundOutline=1;darkOpacity=0.05;darkOpacity2=0.1;fillColor=#148AFF;flipH=1;" parent="1" vertex="1">
          <mxGeometry x="-140" y="-430" width="10" height="380" as="geometry" />
        </mxCell>
        <mxCell id="PNFVQXXulbzdwSJi9o5z-3" value="" style="shape=singleArrow;whiteSpace=wrap;html=1;fillColor=#CC00CC;" parent="1" vertex="1">
          <mxGeometry x="-120" y="-270" width="70" height="60" as="geometry" />
        </mxCell>
        <mxCell id="PNFVQXXulbzdwSJi9o5z-5" value="" style="shape=cube;whiteSpace=wrap;html=1;boundedLbl=1;backgroundOutline=1;darkOpacity=0.05;darkOpacity2=0.1;fillColor=#148AFF;flipH=1;" parent="1" vertex="1">
          <mxGeometry x="-40" y="-430" width="30" height="380" as="geometry" />
        </mxCell>
        <mxCell id="PNFVQXXulbzdwSJi9o5z-7" value="" style="shape=cube;whiteSpace=wrap;html=1;boundedLbl=1;backgroundOutline=1;darkOpacity=0.05;darkOpacity2=0.1;fillColor=#148AFF;flipH=1;" parent="1" vertex="1">
          <mxGeometry x="80" y="-430" width="30" height="380" as="geometry" />
        </mxCell>
        <mxCell id="PNFVQXXulbzdwSJi9o5z-8" value="" style="shape=singleArrow;whiteSpace=wrap;html=1;fillColor=#CC00CC;" parent="1" vertex="1">
          <mxGeometry y="-270" width="70" height="60" as="geometry" />
        </mxCell>
        <mxCell id="PNFVQXXulbzdwSJi9o5z-9" value="" style="shape=singleArrow;direction=south;whiteSpace=wrap;html=1;fillColor=#FFFF00;" parent="1" vertex="1">
          <mxGeometry x="70" y="-40" width="50" height="70" as="geometry" />
        </mxCell>
        <mxCell id="PNFVQXXulbzdwSJi9o5z-11" value="" style="shape=cube;whiteSpace=wrap;html=1;boundedLbl=1;backgroundOutline=1;darkOpacity=0.05;darkOpacity2=0.1;fillColor=#148AFF;flipH=1;" parent="1" vertex="1">
          <mxGeometry x="80" y="40" width="30" height="290" as="geometry" />
        </mxCell>
        <mxCell id="PNFVQXXulbzdwSJi9o5z-12" value="" style="shape=singleArrow;whiteSpace=wrap;html=1;fillColor=#CC00CC;" parent="1" vertex="1">
          <mxGeometry x="120" y="155" width="70" height="60" as="geometry" />
        </mxCell>
        <mxCell id="PNFVQXXulbzdwSJi9o5z-13" value="" style="shape=cube;whiteSpace=wrap;html=1;boundedLbl=1;backgroundOutline=1;darkOpacity=0.05;darkOpacity2=0.1;fillColor=#148AFF;flipH=1;" parent="1" vertex="1">
          <mxGeometry x="200" y="40" width="40" height="290" as="geometry" />
        </mxCell>
        <mxCell id="PNFVQXXulbzdwSJi9o5z-14" value="" style="shape=singleArrow;whiteSpace=wrap;html=1;fillColor=#CC00CC;" parent="1" vertex="1">
          <mxGeometry x="250" y="155" width="70" height="60" as="geometry" />
        </mxCell>
        <mxCell id="PNFVQXXulbzdwSJi9o5z-15" value="" style="shape=cube;whiteSpace=wrap;html=1;boundedLbl=1;backgroundOutline=1;darkOpacity=0.05;darkOpacity2=0.1;fillColor=#148AFF;flipH=1;" parent="1" vertex="1">
          <mxGeometry x="330" y="40" width="40" height="290" as="geometry" />
        </mxCell>
        <mxCell id="PNFVQXXulbzdwSJi9o5z-16" value="" style="shape=singleArrow;direction=south;whiteSpace=wrap;html=1;fillColor=#FFFF00;" parent="1" vertex="1">
          <mxGeometry x="325" y="340" width="50" height="70" as="geometry" />
        </mxCell>
        <mxCell id="PNFVQXXulbzdwSJi9o5z-17" value="" style="shape=cube;whiteSpace=wrap;html=1;boundedLbl=1;backgroundOutline=1;darkOpacity=0.05;darkOpacity2=0.1;fillColor=#148AFF;flipH=1;" parent="1" vertex="1">
          <mxGeometry x="330" y="420" width="40" height="230" as="geometry" />
        </mxCell>
        <mxCell id="PNFVQXXulbzdwSJi9o5z-18" value="" style="shape=singleArrow;whiteSpace=wrap;html=1;fillColor=#CC00CC;" parent="1" vertex="1">
          <mxGeometry x="380" y="505" width="70" height="60" as="geometry" />
        </mxCell>
        <mxCell id="PNFVQXXulbzdwSJi9o5z-19" value="" style="shape=cube;whiteSpace=wrap;html=1;boundedLbl=1;backgroundOutline=1;darkOpacity=0.05;darkOpacity2=0.1;fillColor=#148AFF;flipH=1;" parent="1" vertex="1">
          <mxGeometry x="460" y="420" width="50" height="230" as="geometry" />
        </mxCell>
        <mxCell id="PNFVQXXulbzdwSJi9o5z-20" value="" style="shape=singleArrow;whiteSpace=wrap;html=1;fillColor=#CC00CC;" parent="1" vertex="1">
          <mxGeometry x="520" y="505" width="70" height="60" as="geometry" />
        </mxCell>
        <mxCell id="PNFVQXXulbzdwSJi9o5z-21" value="" style="shape=cube;whiteSpace=wrap;html=1;boundedLbl=1;backgroundOutline=1;darkOpacity=0.05;darkOpacity2=0.1;fillColor=#148AFF;flipH=1;" parent="1" vertex="1">
          <mxGeometry x="600" y="420" width="50" height="230" as="geometry" />
        </mxCell>
        <mxCell id="PNFVQXXulbzdwSJi9o5z-22" value="" style="shape=singleArrow;direction=south;whiteSpace=wrap;html=1;fillColor=#FFFF00;" parent="1" vertex="1">
          <mxGeometry x="600" y="660" width="50" height="70" as="geometry" />
        </mxCell>
        <mxCell id="PNFVQXXulbzdwSJi9o5z-23" value="" style="shape=cube;whiteSpace=wrap;html=1;boundedLbl=1;backgroundOutline=1;darkOpacity=0.05;darkOpacity2=0.1;fillColor=#148AFF;flipH=1;" parent="1" vertex="1">
          <mxGeometry x="600" y="740" width="50" height="170" as="geometry" />
        </mxCell>
        <mxCell id="PNFVQXXulbzdwSJi9o5z-24" value="" style="shape=singleArrow;whiteSpace=wrap;html=1;fillColor=#CC00CC;" parent="1" vertex="1">
          <mxGeometry x="660" y="795" width="70" height="60" as="geometry" />
        </mxCell>
        <mxCell id="PNFVQXXulbzdwSJi9o5z-25" value="" style="shape=cube;whiteSpace=wrap;html=1;boundedLbl=1;backgroundOutline=1;darkOpacity=0.05;darkOpacity2=0.1;fillColor=#148AFF;flipH=1;" parent="1" vertex="1">
          <mxGeometry x="740" y="740" width="60" height="170" as="geometry" />
        </mxCell>
        <mxCell id="PNFVQXXulbzdwSJi9o5z-26" value="" style="shape=singleArrow;whiteSpace=wrap;html=1;fillColor=#CC00CC;" parent="1" vertex="1">
          <mxGeometry x="810" y="795" width="70" height="60" as="geometry" />
        </mxCell>
        <mxCell id="PNFVQXXulbzdwSJi9o5z-27" value="" style="shape=cube;whiteSpace=wrap;html=1;boundedLbl=1;backgroundOutline=1;darkOpacity=0.05;darkOpacity2=0.1;fillColor=#148AFF;flipH=1;" parent="1" vertex="1">
          <mxGeometry x="890" y="740" width="60" height="170" as="geometry" />
        </mxCell>
        <mxCell id="PNFVQXXulbzdwSJi9o5z-28" value="" style="shape=singleArrow;direction=south;whiteSpace=wrap;html=1;fillColor=#FFFF00;" parent="1" vertex="1">
          <mxGeometry x="895" y="920" width="50" height="70" as="geometry" />
        </mxCell>
        <mxCell id="PNFVQXXulbzdwSJi9o5z-29" value="" style="shape=cube;whiteSpace=wrap;html=1;boundedLbl=1;backgroundOutline=1;darkOpacity=0.05;darkOpacity2=0.1;fillColor=#148AFF;flipH=1;" parent="1" vertex="1">
          <mxGeometry x="890" y="1000" width="60" height="100" as="geometry" />
        </mxCell>
        <mxCell id="PNFVQXXulbzdwSJi9o5z-30" value="" style="shape=singleArrow;whiteSpace=wrap;html=1;fillColor=#CC00CC;" parent="1" vertex="1">
          <mxGeometry x="960" y="1020" width="70" height="60" as="geometry" />
        </mxCell>
        <mxCell id="PNFVQXXulbzdwSJi9o5z-31" value="" style="shape=cube;whiteSpace=wrap;html=1;boundedLbl=1;backgroundOutline=1;darkOpacity=0.05;darkOpacity2=0.1;fillColor=#148AFF;flipH=1;" parent="1" vertex="1">
          <mxGeometry x="1040" y="1000" width="90" height="100" as="geometry" />
        </mxCell>
        <mxCell id="PNFVQXXulbzdwSJi9o5z-32" value="" style="shape=singleArrow;whiteSpace=wrap;html=1;fillColor=#CC00CC;" parent="1" vertex="1">
          <mxGeometry x="1140" y="1020" width="70" height="60" as="geometry" />
        </mxCell>
        <mxCell id="PNFVQXXulbzdwSJi9o5z-33" value="" style="shape=cube;whiteSpace=wrap;html=1;boundedLbl=1;backgroundOutline=1;darkOpacity=0.05;darkOpacity2=0.1;fillColor=#148AFF;flipH=1;" parent="1" vertex="1">
          <mxGeometry x="1220" y="1000" width="90" height="100" as="geometry" />
        </mxCell>
        <mxCell id="PNFVQXXulbzdwSJi9o5z-34" value="" style="verticalLabelPosition=bottom;verticalAlign=top;html=1;shape=mxgraph.basic.frame;dx=10;whiteSpace=wrap;fillColor=#00FF00;" parent="1" vertex="1">
          <mxGeometry x="1197.5" y="795" width="135" height="60" as="geometry" />
        </mxCell>
        <mxCell id="PNFVQXXulbzdwSJi9o5z-36" value="Text" style="text;html=1;align=center;verticalAlign=middle;resizable=0;points=[];autosize=1;strokeColor=none;fillColor=none;" parent="1" vertex="1">
          <mxGeometry x="1240" y="810" width="50" height="30" as="geometry" />
        </mxCell>
        <mxCell id="PNFVQXXulbzdwSJi9o5z-37" value="" style="shape=singleArrow;direction=north;whiteSpace=wrap;html=1;arrowWidth=0.280003662109375;arrowSize=0.12727307406338778;fillColor=#006600;" parent="1" vertex="1">
          <mxGeometry x="1235" y="860" width="60" height="130" as="geometry" />
        </mxCell>
        <mxCell id="PNFVQXXulbzdwSJi9o5z-38" value="" style="html=1;shadow=0;dashed=0;align=center;verticalAlign=middle;shape=mxgraph.arrows2.stripedArrow;dy=0.73;dx=13;notch=66;fillColor=#808080;" parent="1" vertex="1">
          <mxGeometry x="140" y="-255" width="2520" height="30" as="geometry" />
        </mxCell>
        <mxCell id="PNFVQXXulbzdwSJi9o5z-39" value="" style="shape=cube;whiteSpace=wrap;html=1;boundedLbl=1;backgroundOutline=1;darkOpacity=0.05;darkOpacity2=0.1;fillColor=#006633;flipH=1;" parent="1" vertex="1">
          <mxGeometry x="1420" y="740" width="60" height="170" as="geometry" />
        </mxCell>
        <mxCell id="PNFVQXXulbzdwSJi9o5z-40" value="" style="shape=cube;whiteSpace=wrap;html=1;boundedLbl=1;backgroundOutline=1;darkOpacity=0.05;darkOpacity2=0.1;fillColor=#148AFF;flipH=1;" parent="1" vertex="1">
          <mxGeometry x="1460" y="740" width="60" height="170" as="geometry" />
        </mxCell>
        <mxCell id="PNFVQXXulbzdwSJi9o5z-41" value="" style="shape=singleArrow;whiteSpace=wrap;html=1;fillColor=#666666;" parent="1" vertex="1">
          <mxGeometry x="1340" y="795" width="70" height="60" as="geometry" />
        </mxCell>
        <mxCell id="PNFVQXXulbzdwSJi9o5z-42" value="" style="shape=cube;whiteSpace=wrap;html=1;boundedLbl=1;backgroundOutline=1;darkOpacity=0.05;darkOpacity2=0.1;fillColor=#148AFF;flipH=1;" parent="1" vertex="1">
          <mxGeometry x="1610" y="740" width="60" height="170" as="geometry" />
        </mxCell>
        <mxCell id="PNFVQXXulbzdwSJi9o5z-43" value="" style="shape=singleArrow;whiteSpace=wrap;html=1;fillColor=#CC00CC;" parent="1" vertex="1">
          <mxGeometry x="1530" y="795" width="70" height="60" as="geometry" />
        </mxCell>
        <mxCell id="PNFVQXXulbzdwSJi9o5z-44" value="" style="shape=singleArrow;whiteSpace=wrap;html=1;fillColor=#CC00CC;" parent="1" vertex="1">
          <mxGeometry x="1680" y="795" width="70" height="60" as="geometry" />
        </mxCell>
        <mxCell id="PNFVQXXulbzdwSJi9o5z-45" value="" style="shape=cube;whiteSpace=wrap;html=1;boundedLbl=1;backgroundOutline=1;darkOpacity=0.05;darkOpacity2=0.1;fillColor=#148AFF;flipH=1;" parent="1" vertex="1">
          <mxGeometry x="1760" y="740" width="60" height="170" as="geometry" />
        </mxCell>
        <mxCell id="PNFVQXXulbzdwSJi9o5z-46" value="" style="shape=singleArrow;direction=north;whiteSpace=wrap;html=1;arrowWidth=0.280003662109375;arrowSize=0.12727307406338778;fillColor=#006600;" parent="1" vertex="1">
          <mxGeometry x="1760" y="580" width="60" height="150" as="geometry" />
        </mxCell>
        <mxCell id="PNFVQXXulbzdwSJi9o5z-47" value="" style="verticalLabelPosition=bottom;verticalAlign=top;html=1;shape=mxgraph.basic.frame;dx=10;whiteSpace=wrap;fillColor=#00FF00;" parent="1" vertex="1">
          <mxGeometry x="2217.5" y="155" width="135" height="60" as="geometry" />
        </mxCell>
        <mxCell id="PNFVQXXulbzdwSJi9o5z-48" value="" style="html=1;shadow=0;dashed=0;align=center;verticalAlign=middle;shape=mxgraph.arrows2.stripedArrow;dy=0.73;dx=13;notch=66;fillColor=#808080;" parent="1" vertex="1">
          <mxGeometry x="960" y="810" width="230" height="30" as="geometry" />
        </mxCell>
        <mxCell id="PNFVQXXulbzdwSJi9o5z-49" value="" style="shape=singleArrow;whiteSpace=wrap;html=1;fillColor=#666666;" parent="1" vertex="1">
          <mxGeometry x="1870" y="505" width="70" height="60" as="geometry" />
        </mxCell>
        <mxCell id="PNFVQXXulbzdwSJi9o5z-50" value="" style="shape=cube;whiteSpace=wrap;html=1;boundedLbl=1;backgroundOutline=1;darkOpacity=0.05;darkOpacity2=0.1;fillColor=#006600;flipH=1;" parent="1" vertex="1">
          <mxGeometry x="1950" y="420" width="50" height="230" as="geometry" />
        </mxCell>
        <mxCell id="PNFVQXXulbzdwSJi9o5z-51" value="" style="shape=cube;whiteSpace=wrap;html=1;boundedLbl=1;backgroundOutline=1;darkOpacity=0.05;darkOpacity2=0.1;fillColor=#148AFF;flipH=1;" parent="1" vertex="1">
          <mxGeometry x="1980" y="420" width="50" height="230" as="geometry" />
        </mxCell>
        <mxCell id="PNFVQXXulbzdwSJi9o5z-52" value="" style="shape=singleArrow;whiteSpace=wrap;html=1;fillColor=#CC00CC;" parent="1" vertex="1">
          <mxGeometry x="2040" y="505" width="70" height="60" as="geometry" />
        </mxCell>
        <mxCell id="PNFVQXXulbzdwSJi9o5z-53" value="" style="shape=cube;whiteSpace=wrap;html=1;boundedLbl=1;backgroundOutline=1;darkOpacity=0.05;darkOpacity2=0.1;fillColor=#148AFF;flipH=1;" parent="1" vertex="1">
          <mxGeometry x="2120" y="420" width="50" height="230" as="geometry" />
        </mxCell>
        <mxCell id="PNFVQXXulbzdwSJi9o5z-54" value="" style="shape=singleArrow;whiteSpace=wrap;html=1;fillColor=#CC00CC;" parent="1" vertex="1">
          <mxGeometry x="2180" y="505" width="70" height="60" as="geometry" />
        </mxCell>
        <mxCell id="PNFVQXXulbzdwSJi9o5z-55" value="" style="shape=cube;whiteSpace=wrap;html=1;boundedLbl=1;backgroundOutline=1;darkOpacity=0.05;darkOpacity2=0.1;fillColor=#148AFF;flipH=1;" parent="1" vertex="1">
          <mxGeometry x="2260" y="420" width="50" height="230" as="geometry" />
        </mxCell>
        <mxCell id="hcDeM6v7PYUN8eIanNec-1" value="" style="verticalLabelPosition=bottom;verticalAlign=top;html=1;shape=mxgraph.basic.frame;dx=10;whiteSpace=wrap;fillColor=#00FF00;" vertex="1" parent="1">
          <mxGeometry x="1732.5" y="515" width="135" height="60" as="geometry" />
        </mxCell>
        <mxCell id="hcDeM6v7PYUN8eIanNec-3" value="" style="shape=singleArrow;direction=north;whiteSpace=wrap;html=1;arrowWidth=0.280003662109375;arrowSize=0.12727307406338778;fillColor=#006600;" vertex="1" parent="1">
          <mxGeometry x="2255" y="230" width="60" height="180" as="geometry" />
        </mxCell>
        <mxCell id="hcDeM6v7PYUN8eIanNec-4" value="" style="html=1;shadow=0;dashed=0;align=center;verticalAlign=middle;shape=mxgraph.arrows2.stripedArrow;dy=0.73;dx=13;notch=66;fillColor=#808080;" vertex="1" parent="1">
          <mxGeometry x="680" y="530" width="1040" height="30" as="geometry" />
        </mxCell>
        <mxCell id="hcDeM6v7PYUN8eIanNec-5" value="" style="shape=singleArrow;whiteSpace=wrap;html=1;fillColor=#666666;" vertex="1" parent="1">
          <mxGeometry x="2360" y="155" width="70" height="60" as="geometry" />
        </mxCell>
        <mxCell id="hcDeM6v7PYUN8eIanNec-6" value="" style="shape=cube;whiteSpace=wrap;html=1;boundedLbl=1;backgroundOutline=1;darkOpacity=0.05;darkOpacity2=0.1;fillColor=#006600;flipH=1;" vertex="1" parent="1">
          <mxGeometry x="2440" y="40" width="40" height="290" as="geometry" />
        </mxCell>
        <mxCell id="hcDeM6v7PYUN8eIanNec-7" value="" style="shape=cube;whiteSpace=wrap;html=1;boundedLbl=1;backgroundOutline=1;darkOpacity=0.05;darkOpacity2=0.1;fillColor=#148AFF;flipH=1;" vertex="1" parent="1">
          <mxGeometry x="2460" y="40" width="40" height="290" as="geometry" />
        </mxCell>
        <mxCell id="hcDeM6v7PYUN8eIanNec-8" value="" style="shape=singleArrow;whiteSpace=wrap;html=1;fillColor=#CC00CC;" vertex="1" parent="1">
          <mxGeometry x="2510" y="155" width="70" height="60" as="geometry" />
        </mxCell>
        <mxCell id="hcDeM6v7PYUN8eIanNec-9" value="" style="shape=cube;whiteSpace=wrap;html=1;boundedLbl=1;backgroundOutline=1;darkOpacity=0.05;darkOpacity2=0.1;fillColor=#148AFF;flipH=1;" vertex="1" parent="1">
          <mxGeometry x="2590" y="40" width="40" height="290" as="geometry" />
        </mxCell>
        <mxCell id="hcDeM6v7PYUN8eIanNec-10" value="" style="shape=singleArrow;whiteSpace=wrap;html=1;fillColor=#CC00CC;" vertex="1" parent="1">
          <mxGeometry x="2640" y="155" width="70" height="60" as="geometry" />
        </mxCell>
        <mxCell id="hcDeM6v7PYUN8eIanNec-11" value="" style="shape=cube;whiteSpace=wrap;html=1;boundedLbl=1;backgroundOutline=1;darkOpacity=0.05;darkOpacity2=0.1;fillColor=#148AFF;flipH=1;" vertex="1" parent="1">
          <mxGeometry x="2720" y="40" width="40" height="290" as="geometry" />
        </mxCell>
        <mxCell id="hcDeM6v7PYUN8eIanNec-12" value="" style="verticalLabelPosition=bottom;verticalAlign=top;html=1;shape=mxgraph.basic.frame;dx=10;whiteSpace=wrap;fillColor=#00FF00;" vertex="1" parent="1">
          <mxGeometry x="2672.5" y="-270" width="135" height="60" as="geometry" />
        </mxCell>
        <mxCell id="hcDeM6v7PYUN8eIanNec-14" value="" style="shape=singleArrow;direction=north;whiteSpace=wrap;html=1;arrowWidth=0.280003662109375;arrowSize=0.12727307406338778;fillColor=#006600;" vertex="1" parent="1">
          <mxGeometry x="2710" y="-200" width="60" height="220" as="geometry" />
        </mxCell>
        <mxCell id="hcDeM6v7PYUN8eIanNec-15" value="" style="html=1;shadow=0;dashed=0;align=center;verticalAlign=middle;shape=mxgraph.arrows2.stripedArrow;dy=0.73;dx=13;notch=66;fillColor=#808080;" vertex="1" parent="1">
          <mxGeometry x="400" y="180" width="1820" height="30" as="geometry" />
        </mxCell>
      </root>
    </mxGraphModel>
  </diagram>
</mxfile>
